<svg id="Capa_1" enable-background="new 0 0 511.9 511.9" height="512" viewBox="0 0 511.9 511.9" width="512" xmlns="http://www.w3.org/2000/svg"><g><path d="m511.9 345.95v45c0 8.28-6.72 15-15 15h-51v-30h36v-30c0-8.28 6.72-15 15-15s15 6.72 15 15z" fill="#583227"/><path d="m450.9 150.95v240c0 8.28-6.72 15-15 15h-420.9c-8.28 0-15-6.72-15-15v-165s12.73-80.49 17.54-90c27-53.35 82.36-90 146.13-90h182.23c57.9 0 105 47.1 105 105z" fill="#00a0f0"/><path d="m450.9 150.95v255h-195v-360h90c57.99 0 105 47.01 105 105z" fill="#0086ed"/><path d="m385.9 150.95v225h-110v-225c0-8.284 6.716-15 15-15h80c8.284 0 15 6.716 15 15z" fill="#cee6f4"/><circle cx="135" cy="390.95" fill="#823931" r="75"/><path d="m210 390.95c0 41.35-33.64 75-75 75v-150c41.36 0 75 33.65 75 75z" fill="#583227"/><circle cx="135" cy="390.95" fill="#ac5743" r="45"/><path d="m180 390.95c0 24.81-20.19 45-45 45v-90c24.81 0 45 20.19 45 45z" fill="#823931"/><circle cx="135.9" cy="390.95" fill="#823931" r="15"/><path d="m150.9 390.95c0 8.28-6.72 15-15 15-.3 0-.6-.01-.9-.03v-29.94c.3-.02.6-.03.9-.03 8.28 0 15 6.72 15 15z" fill="#583227"/><path d="m240.9 150.95v90c0 8.28-6.72 15-15 15h-225.9v-30l5.913-59.999c2.898-10.456 6.811-20.494 11.627-30.001h208.36c8.28 0 15 6.72 15 15z" fill="#47c1ff"/><g fill="#f0faff"><path d="m90.9 165.95v60h-90.9v-16.33c0-15.12 2.06-29.77 5.91-43.67z"/><path d="m120.9 165.95h90v60h-90z"/></g></g></svg>