<svg id="Capa_1" enable-background="new 0 0 512 512" height="512" viewBox="0 0 512 512" width="512" xmlns="http://www.w3.org/2000/svg"><g><path d="m342.48 251c-.055.325-35.334 211.132-36.63 218.88-4.09 24.41-25.01 42.12-49.76 42.12-23.91 0-45.26-16.69-49.73-41.97 0-.04-.01-.07-.02-.11 0-.01 0-.01 0-.02-7.804-46.574-35.62-212.247-36.73-218.9z" fill="#823931"/><path d="m342.48 251c-.02.1-16.9 101-16.92 101.11l-.01.01c-.02.18-19.11 114.24-19.7 117.76-4.09 24.41-25 42.12-49.75 42.12v-261z" fill="#583227"/><path d="m297.52 251-109.53 109.53c-10.114-60.279-1.028-6.128-6.1-36.33l73.2-73.2z" fill="#ac5743"/><path d="m297.52 251c-6.803 6.803-17.384 17.383-41.42 41.42v-41.42z" fill="#823931"/><path d="m342.48 251c-.23 1.35-3.6 21.52-8.22 49.12l-133.93 133.93-6.1-36.33 146.72-146.72z" fill="#ac5743"/><path d="m342.48 251c-.017.103-7.612 45.511-8.22 49.12l-78.16 78.16v-42.43c24.827-24.827 60.979-60.98 84.85-84.85z" fill="#823931"/><path d="m325.56 352.11-8.53 50.95-95.4 95.4c-7.58-7.08-12.99-16.53-15.07-27.35z" fill="#ac5743"/><path d="m325.56 352.11c-9.479 56.618-8.453 50.487-8.53 50.95l-60.93 60.93v-42.42z" fill="#823931"/><g><path d="m376.6 150.5c0 12.54-1.89 24.76-5.61 36.5h-229.78c-3.73-11.73-5.61-23.95-5.61-36.5 0-66.44 54.06-120.5 120.5-120.5s120.5 54.06 120.5 120.5z" fill="#fde55f"/></g><g><path d="m370.99 187h-114.89v-157c81.299 0 139.613 79.568 114.89 157z" fill="#f7ba57"/></g><circle cx="211.05" cy="136.521" fill="#f7ba57" r="14.479"/><circle cx="293.55" cy="181" fill="#f29541" r="14.479"/><circle cx="256.1" cy="45" fill="#e85b8e" r="45"/><path d="m301.1 45c0 24.81-20.19 45-45 45v-90c24.853 0 45 20.236 45 45z" fill="#db1f79"/><path d="m136 182c-8.284 0-15 6.716-15 15v24c0 19.299 15.701 35 35 35h100.1l9.96-37-9.96-37z" fill="#ac5743"/><path d="m391 197v24c0 19.3-15.7 35-35 35h-99.9v-74h119.9c8.28 0 15 6.72 15 15z" fill="#823931"/></g></svg>