<svg id="Capa_1" enable-background="new 0 0 512 512" height="512" viewBox="0 0 512 512" width="512" xmlns="http://www.w3.org/2000/svg"><g><path d="m449.18 109.173c-11.192-22.37-36.104-34.374-60.571-29.195l-44.715 9.465c-8.105 1.715-13.283 9.676-11.568 17.78 1.716 8.105 9.675 13.287 17.78 11.568l44.715-9.465c11.124-2.354 22.444 3.102 27.531 13.27l50.355 100.642h-216.71c-1.953 1.953-3.047 3.047-5 5v19.999l5 5h17.253l7.54 45.345c-8.038-2.662-16.414-3.995-24.793-3.995l-3.82 4.995.205 20.568 3.615 4.433c11.004 0 22.01 3.716 30.971 11.152l.5 3.008c9.128 54.895 56.992 95.163 112.912 94.464 62.077-.775 111.578-52.281 111.578-114.362v-79.875c.363-7.278-.247-3.246-62.778-129.797z" fill="#db1f79"/><path d="m231.177 298.594 7.542-45.358h17.278v-29.998c-84.951 0-170.471 0-216.686 0l50.355-100.642c5.088-10.168 16.411-15.627 27.531-13.27l44.715 9.465c8.105 1.715 16.065-3.464 17.78-11.568s-3.464-16.065-11.568-17.78l-44.715-9.465c-24.476-5.18-49.38 6.826-60.571 29.195-65.185 131.145-62.827 123.063-62.827 129.065v81.97c0 62.314 50.696 113.01 113.01 113.01 55.172 0 102.409-39.919 111.479-94.473l.495-2.974c8.962-7.457 19.981-11.185 31.002-11.185v-29.996c-8.382-.002-16.767 1.332-24.82 4.004z" fill="#e85b8e"/><path d="m208.309 253.24c-15.996 96.204-13.03 78.363-13.399 80.586-6.69 40.208-41.128 69.396-81.886 69.396-42.312 0-77.37-31.846-82.386-72.826-1.096-8.715-.436-9.105-.63-77.156z" fill="#00a0f0"/><path d="m481.965 253.24v66.966c0 45.778-37.248 83.016-83.015 83.016-40.587 0-75.183-29.018-81.886-69.396-16.048-96.513-12.974-78.031-13.399-80.586z" fill="#0086ed"/><g fill="#00a0f0"><path d="m481.965 253.24v28.128l-115.314 115.384c-9.539-4.01-18.179-9.749-25.529-16.879l126.553-126.633z"/><path d="m425.238 253.24-101.725 101.724c-3.01-6.59-5.21-13.669-6.45-21.139l-2.11-12.719 67.866-67.866z"/></g><g fill="#47c1ff"><path d="m208.309 253.24-5.33 32.078-114.263 114.264c-10.209-3.12-19.579-8.17-27.699-14.719l131.613-131.623z"/><path d="m150.213 253.24-108.845 108.844c-5.59-9.519-9.329-20.249-10.729-31.688l77.146-77.156z"/></g></g></svg>